<?xml version="1.0" encoding="UTF-8" standalone="no"?>
<!-- Created with Inkscape (http://www.inkscape.org/) -->

<svg
   xmlns:dc="http://purl.org/dc/elements/1.1/"
   xmlns:cc="http://creativecommons.org/ns#"
   xmlns:rdf="http://www.w3.org/1999/02/22-rdf-syntax-ns#"
   xmlns:svg="http://www.w3.org/2000/svg"
   xmlns="http://www.w3.org/2000/svg"
   xmlns:sodipodi="http://sodipodi.sourceforge.net/DTD/sodipodi-0.dtd"
   xmlns:inkscape="http://www.inkscape.org/namespaces/inkscape"
   version="1.1"
   id="svg103"
   width="614.40002"
   height="345.60001"
   viewBox="0 0 614.40002 345.60001"
   sodipodi:docname="obelisk.svg"
   inkscape:version="0.92.4 5da689c313, 2019-01-14">
  <metadata
     id="metadata109">
    <rdf:RDF>
      <cc:Work
         rdf:about="">
        <dc:format>image/svg+xml</dc:format>
        <dc:type
           rdf:resource="http://purl.org/dc/dcmitype/StillImage" />
        <dc:title></dc:title>
      </cc:Work>
    </rdf:RDF>
  </metadata>
  <defs
     id="defs107" />
  <sodipodi:namedview
     pagecolor="#ffffff"
     bordercolor="#666666"
     borderopacity="1"
     objecttolerance="10"
     gridtolerance="10"
     guidetolerance="10"
     inkscape:pageopacity="0"
     inkscape:pageshadow="2"
     inkscape:window-width="1920"
     inkscape:window-height="1056"
     id="namedview105"
     showgrid="false"
     inkscape:zoom="2.5202546"
     inkscape:cx="307.20001"
     inkscape:cy="141.05718"
     inkscape:window-x="0"
     inkscape:window-y="24"
     inkscape:window-maximized="0"
     inkscape:current-layer="svg103" />
  <path
     style="fill:#000000;stroke-width:0.32000002"
     d="m 96.333395,260.84422 c -0.978451,-0.18056 -1.138307,-0.35245 -1.380301,-1.48421 -0.150528,-0.704 -0.18768,-2.144 -0.08256,-3.2 0.10512,-1.056 0.247088,-18.264 0.315485,-38.24 0.0684,-19.976 0.22328,-36.86 0.344183,-37.52 l 0.21982,-1.2 h 3.30416 c 1.817288,0 3.641208,0.12814 4.053158,0.28477 l 0.74901,0.28477 0.076,10.51523 c 0.0921,12.7432 -0.41376,11.63292 5.30313,11.64013 2.13651,0.003 4.10055,0.14118 4.36455,0.30774 0.37673,0.23769 0.51443,1.28392 0.64,4.86289 l 0.16,4.56004 1.12,0.25726 c 0.616,0.1415 2.632,0.22374 4.48,0.18277 1.848,-0.041 5.9215,-0.0433 9.05222,-0.005 l 5.69221,0.0695 -0.0368,1.84 c -0.0203,1.012 -0.0326,4.93562 -0.0274,8.71915 0.005,3.78354 -0.10651,6.99514 -0.24825,7.13688 -0.14175,0.14175 -4.61057,0.28618 -9.93072,0.32096 -8.73262,0.0571 -9.71211,0.11672 -10.07528,0.61337 -0.40139,0.54894 -0.82406,13.41714 -0.8254,25.12964 -3.1e-4,2.684 -0.10857,4.88379 -0.24057,4.88843 -4.55176,0.16 -16.220554,0.18452 -17.026605,0.0358 z m 102.217045,-0.28421 c -0.34231,-0.8053 -0.59365,-15.75771 -0.26511,-15.77166 0.15107,-0.006 2.67959,-0.0424 5.61892,-0.08 3.88259,-0.0496 5.45796,-0.18214 5.76,-0.48443 0.28856,-0.28878 0.39568,-1.26778 0.35013,-3.2 -0.0361,-1.53115 0.16225,-4.47978 0.44077,-6.55251 0.41414,-3.08213 0.44066,-4.28102 0.14562,-6.58168 -0.19842,-1.54719 -0.36076,-3.75021 -0.36076,-4.89561 0,-2.52503 -0.63059,-3.30042 -2.96315,-3.64362 -1.20471,-0.17725 -1.5518,-0.36693 -1.66026,-0.9073 -0.38793,-1.93282 -0.50154,-5.58677 -0.30495,-9.80849 l 0.2193,-4.70936 3.71453,-0.20731 c 3.79388,-0.21173 9.51411,0.16184 11.59217,0.75707 1.84904,0.52963 3.224,1.64748 4.08548,3.32155 0.72869,1.41603 0.83596,2.1588 1.1874,8.22202 0.4505,7.77232 0.32887,35.09127 -0.16765,37.65578 -0.61444,3.1735 -2.25917,5.378 -4.57474,6.13171 -2.53508,0.82515 -8.2295,1.31384 -15.3096,1.31384 -6.61985,0 -7.29135,-0.0501 -7.5081,-0.56 z m 186.12903,0.23936 c -1.29264,-0.30519 -3.41827,-1.75449 -4.28205,-2.91955 -1.34995,-1.8208 -1.50736,-3.78762 -1.50803,-18.83981 0,-7.832 0.0869,-14.56657 0.19379,-14.9657 l 0.19446,-0.7257 7.56119,0.0857 7.56118,0.0857 0.2753,2.56 c 0.15139,1.408 0.24848,5.6358 0.21571,9.39511 -0.0415,4.76417 0.0584,7.11991 0.32979,7.77509 0.59296,1.43156 1.77635,1.8698 5.04909,1.8698 2.42976,0 2.89424,0.0845 3.0776,0.56 0.37578,0.97437 0.20423,14.53623 -0.18989,15.01109 -0.28256,0.34045 -2.11328,0.42215 -8.87677,0.39615 -4.68646,-0.018 -9.00707,-0.14756 -9.60137,-0.28788 z m 117.80247,0.10793 c -1.47562,-0.12364 -1.70263,-0.23835 -1.88141,-0.95071 -0.11184,-0.44555 -0.22071,-9.71979 -0.24192,-20.60942 -0.0378,-19.40156 -0.0515,-19.80904 -0.67859,-20.28306 -0.50842,-0.38429 -1.70509,-0.48584 -5.82039,-0.49393 l -5.18041,-0.0102 -0.2266,-1.51114 c -0.26048,-1.73706 0.0317,-12.76639 0.36055,-13.61406 0.19305,-0.49757 0.47347,-0.53586 2.34307,-0.32 1.1681,0.13486 2.95178,0.21194 3.96378,0.17129 10.6808,-0.429 14.84112,-0.11665 17.37459,1.30446 2.636,1.47861 3.33277,3.64393 3.56851,11.08945 0.2464,7.78294 0.2505,8.42685 0.17155,27.08576 -0.0651,15.38967 -0.13638,17.66945 -0.55747,17.83104 -0.63846,0.245 -11.05242,0.49004 -13.19526,0.31049 z M 145.0736,260.12107 c -2.25657,-0.69273 -4.3887,-2.57966 -4.9238,-4.35756 -0.22013,-0.73141 -0.43178,-5.3781 -0.53956,-11.84569 -0.23066,-13.84208 0.1899,-16.77266 2.72662,-18.99993 2.32034,-2.03728 3.27754,-2.25029 10.20376,-2.27062 5.00321,-0.0147 6.30144,0.0703 6.52746,0.4272 0.15517,0.24505 0.28433,3.92213 0.28703,8.1713 0.005,8.30579 0.0441,8.11424 -1.64589,8.11424 -0.35115,0 -1.03223,0.396 -1.51353,0.88 l -0.87507,0.88 -0.0838,9.59682 c -0.0461,5.27825 -0.13749,9.65052 -0.20312,9.71615 -0.0656,0.0656 -1.91058,0.15213 -4.09989,0.19222 -3.08688,0.0565 -4.40256,-0.0566 -5.86021,-0.50413 z m 39.94608,0.29061 c -0.30226,-0.30226 -0.3474,-9.22039 -0.20367,-40.24 0.10156,-21.91842 0.25025,-40.17567 0.33042,-40.57167 l 0.14577,-0.72 h 7.31967 c 6.66279,0 7.34204,0.0503 7.569,0.56 0.29854,0.67052 0.5838,57.24589 0.29849,59.2 l -0.19857,1.36 h -2.79923 c -1.73593,0 -3.00725,0.15211 -3.34686,0.40044 -0.4881,0.3569 -0.56986,1.46741 -0.75217,10.21601 -0.2377,11.40734 0.33968,10.17225 -4.75852,10.17918 -2.09995,0.003 -3.35077,-0.13039 -3.60433,-0.38396 z m 46.26012,-0.18931 c -0.3148,-0.38008 -0.37847,-6.54256 -0.29949,-28.98617 0.0552,-15.67691 0.1413,-28.54447 0.19141,-28.59457 0.0501,-0.0501 1.97189,-0.15087 4.27063,-0.22392 l 4.17954,-0.13283 0.23223,0.85756 c 0.12773,0.47166 0.20352,4.53175 0.16841,9.02243 -0.0396,5.07133 0.0631,8.49861 0.27109,9.04573 0.41444,1.09007 1.37172,1.46899 4.34633,1.72044 l 2.31876,0.19601 0.19173,2.91648 c 0.10546,1.60406 0.0986,4.71648 -0.0151,6.91648 -0.23996,4.63989 -0.2716,7.97802 -0.14708,15.52 0.0494,2.992 -0.0268,6.93256 -0.16921,8.75679 l -0.25901,3.3168 -7.44021,0.0757 c -6.30602,0.0642 -7.50115,0.002 -7.84,-0.40697 z m 29.93909,0.17764 c -0.28777,-0.44464 -0.54381,-55.01826 -0.26347,-56.16 l 0.17678,-0.72 h 7.47967 c 6.63086,0 7.50247,0.0594 7.68063,0.52371 0.11054,0.28804 0.19647,13.06045 0.19098,28.38313 -0.008,21.80771 -0.0962,27.91415 -0.40673,28.11139 -0.21821,0.13858 -3.59224,0.25417 -7.49785,0.25687 -5.33395,0.004 -7.16555,-0.0946 -7.36001,-0.3951 z m 70.41472,-0.27894 c -2.25658,-0.69273 -4.3887,-2.57966 -4.92381,-4.35756 -0.22013,-0.73141 -0.43177,-5.3781 -0.53955,-11.84569 -0.23066,-13.84208 0.18989,-16.77266 2.72662,-18.99993 2.32032,-2.03728 3.27754,-2.25029 10.20375,-2.27062 5.00323,-0.0147 6.30144,0.0703 6.52746,0.4272 0.15516,0.24505 0.28435,3.92213 0.28704,8.1713 0.005,8.30579 0.0441,8.11424 -1.64589,8.11424 -0.35114,0 -1.03223,0.396 -1.51354,0.88 l -0.87507,0.88 -0.0838,9.59682 c -0.0461,5.27825 -0.1375,9.65052 -0.20313,9.71615 -0.0656,0.0656 -1.91059,0.15213 -4.09991,0.19222 -3.08688,0.0565 -4.40256,-0.0566 -5.86019,-0.50413 z m 77.10528,0.27894 c -0.28777,-0.44464 -0.5438,-55.01826 -0.26345,-56.16 l 0.17677,-0.72 h 7.47968 c 6.63084,0 7.50246,0.0594 7.6806,0.52371 0.11056,0.28804 0.19648,13.06045 0.19098,28.38313 -0.008,21.80771 -0.0962,27.91415 -0.40672,28.11139 -0.21821,0.13858 -3.59222,0.25417 -7.49786,0.25687 -5.33395,0.004 -7.16553,-0.0946 -7.36,-0.3951 z m 26.8482,-0.0806 c -3.34,-0.60529 -4.67434,-1.60771 -6.041,-4.53824 -0.54147,-1.16107 -0.7726,-2.21723 -0.77036,-3.52 0.003,-1.02367 0.004,-10.64521 0.005,-21.38121 0.003,-20.89426 0.0765,-21.99348 1.63689,-24.18489 0.35498,-0.49852 1.59936,-1.37603 2.76531,-1.95002 2.0664,-1.01729 2.22832,-1.04405 6.41536,-1.06026 2.36247,-0.009 4.37367,0.10997 4.46932,0.2647 0.0956,0.15473 0.22988,8.79738 0.2984,19.2059 0.0685,10.40851 0.19699,19.3728 0.28547,19.92063 0.21872,1.35367 0.98179,1.93213 2.80422,2.12573 0.84471,0.0897 1.63671,0.26374 1.76,0.38668 0.41597,0.41473 0.45587,14.25959 0.0425,14.75763 -0.4977,0.59969 -10.32077,0.58055 -13.67126,-0.0267 z m 18.93632,0.12018 c -0.15588,-0.2418 -0.32544,-9.36763 -0.37684,-20.27963 -0.0761,-16.15688 -0.17382,-19.92077 -0.52649,-20.27506 -0.23815,-0.23927 -1.12618,-0.56454 -1.97338,-0.72281 -0.84717,-0.15827 -1.68733,-0.43479 -1.86704,-0.61448 -0.32633,-0.32634 -0.29155,-14.37396 0.0364,-14.70765 0.38077,-0.38741 12.48627,-0.14401 14.15699,0.28465 2.08013,0.53368 4.13171,2.40282 4.78048,4.35535 0.58951,1.7742 1.05335,18.62224 0.93821,34.08 -0.0877,11.78404 -0.12125,12.38264 -0.77014,13.76 -1.5416,3.2723 -3.52919,4.16815 -9.75821,4.3983 -3.47757,0.12849 -4.41383,0.0723 -4.64,-0.27867 z m 20.35581,-0.44175 c -0.32058,-0.84314 -0.0914,-56.38983 0.23481,-56.91766 0.23984,-0.38806 7.40653,-0.0477 7.82589,0.37168 0.21456,0.21455 0.34973,3.56461 0.37725,9.34894 l 0.0429,9.01458 0.92832,0.79851 c 0.84323,0.72531 1.15123,0.78917 3.36,0.69664 l 2.43168,-0.10187 0.1631,10.23565 c 0.0897,5.62961 0.1048,14.08765 0.0336,18.79565 l -0.1295,8.56 h -7.48151 -7.48153 z M 160.4859,259.54683 c -0.1813,-0.82544 -0.28889,-7.81434 -0.19835,-12.88397 0.0382,-2.13846 0.55149,-2.82285 2.11717,-2.82285 2.05735,0 2.07529,-0.10678 2.07529,-12.35121 0,-6.01084 -0.0867,-11.36238 -0.19271,-11.89233 -0.33927,-1.69632 -0.8928,-1.77784 -11.5381,-1.69945 l -9.6508,0.0711 -0.25945,-0.74405 c -0.39122,-1.12193 -0.19568,-14.41884 0.21577,-14.67314 0.57653,-0.35632 24.7859,-0.60854 27.8621,-0.29028 5.43085,0.56187 7.73279,2.10642 8.79216,5.89938 0.47921,1.71576 0.53019,4.11556 0.47918,22.56 -0.0583,21.07564 -0.17999,23.42961 -1.3227,25.5826 -1.86197,3.50812 -3.92522,4.17074 -13.00003,4.17498 l -5.17457,0.003 -0.20496,-0.93318 z m 127.53145,0.44437 c -2.90151,-0.64224 -4.75508,-1.8732 -5.75982,-3.82512 l -0.81752,-1.58821 -0.0902,-22.64504 c -0.10021,-25.14906 -0.24818,-23.3109 2.08428,-25.89265 2.0934,-2.31714 2.26094,-2.35589 10.23193,-2.36649 l 7.10599,-0.009 0.21063,1.68586 c 0.11585,0.92721 0.14317,2.14555 0.0607,2.70741 -0.0825,0.56187 -0.0165,2.32678 0.14654,3.92203 0.16306,1.59526 0.20416,3.78586 0.0913,4.86801 l -0.20515,1.96755 -1.37481,0.34619 c -2.59834,0.65427 -2.67065,0.81232 -3.09186,6.75872 -0.31625,4.46467 -0.29943,5.74943 0.10889,8.32 0.28996,1.82546 0.41946,4.07462 0.32413,5.62965 -0.18599,3.03378 0.10011,3.77059 1.72826,4.45087 2.99439,1.25114 7.14938,-0.43545 7.14938,-2.90207 0,-0.64401 0.18968,-1.10277 0.50617,-1.22422 0.2784,-0.10684 3.72403,-0.19424 7.65698,-0.19424 h 7.1508 l 0.22951,1.83683 c 0.1262,1.01026 0.1336,4.17627 0.0163,7.03557 -0.20992,5.12119 -0.22992,5.23224 -1.34036,7.44488 -0.61999,1.23538 -1.51021,2.49737 -1.97827,2.80443 -1.27796,0.83838 -4.54881,1.07187 -16.88125,1.20507 -8.87504,0.0959 -11.62818,0.0262 -13.26265,-0.33559 z m 59.02855,-0.44437 c -0.18128,-0.82544 -0.2889,-7.81434 -0.19834,-12.88397 0.0382,-2.13846 0.55149,-2.82285 2.11716,-2.82285 2.05734,0 2.07529,-0.10678 2.07529,-12.35121 0,-6.01084 -0.0867,-11.36238 -0.1927,-11.89233 -0.33927,-1.69632 -0.8928,-1.77784 -11.53811,-1.69945 l -9.65079,0.0711 -0.25946,-0.74405 c -0.39123,-1.12193 -0.19568,-14.41884 0.21578,-14.67314 0.57651,-0.35632 24.78589,-0.60854 27.86208,-0.29028 5.43088,0.56187 7.7328,2.10642 8.79216,5.89938 0.47923,1.71576 0.53021,4.11556 0.4792,22.56 -0.0583,21.07564 -0.18,23.42961 -1.32272,25.5826 -1.86195,3.50812 -3.92521,4.17074 -13,4.17498 l -5.17459,0.003 -0.20496,-0.93318 z M 306.03588,223.2886 c -0.25782,-0.41715 -0.17167,-19.17946 0.0893,-19.44039 0.27602,-0.27602 6.29947,-0.27329 8.39022,0.004 2.61558,0.34664 4.26804,1.41991 5.2802,3.42946 1.18599,2.35465 1.48445,4.45782 1.48445,10.46005 0,4.76569 -0.0715,5.57747 -0.50618,5.74425 -0.2784,0.10683 -3.65389,0.19424 -7.50111,0.19424 -5.16881,0 -7.05809,-0.10218 -7.23684,-0.3914 z m 67.30932,-4.95151 c -1.30861,-0.11371 -1.5824,-0.25854 -1.85776,-0.98273 -0.1776,-0.46716 -0.233,-1.2077 -0.12308,-1.64565 0.10992,-0.43795 0.1866,-3.42103 0.1704,-6.62906 -0.0224,-4.40015 0.0706,-5.89618 0.37789,-6.09091 0.22403,-0.14198 1.70205,-0.33253 3.28445,-0.42344 3.91686,-0.22503 3.85597,-0.0909 3.80179,-8.37133 l -0.0411,-6.28603 4.36112,-0.19176 c 2.39863,-0.10546 5.87312,-0.0848 7.72112,0.046 l 3.36,0.23779 0.16,6.76447 c 0.15914,6.72832 0.16429,6.76816 0.96,7.4556 0.72679,0.62789 1.05475,0.67549 3.58397,0.52016 1.80141,-0.11064 2.85821,-0.0509 2.99434,0.16936 0.11568,0.18719 0.16646,1.5171 0.11283,2.95537 -0.0536,1.43827 -0.0538,4.73247 0,7.32045 l 0.097,4.70541 -0.91382,0.24102 c -0.86339,0.22771 -11.57341,0.31671 -19.63383,0.16315 -2.024,-0.0386 -4.4,-0.0148 -5.28,0.0527 -0.88,0.0675 -2.29065,0.0628 -3.13481,-0.0106 z m -127.84119,-0.48108 c -0.40769,-0.40769 -0.5656,-13.46558 -0.18024,-14.90393 0.19364,-0.72276 0.2305,-0.7273 5.19282,-0.64 l 4.99779,0.0879 0.20495,0.96 c 0.11273,0.528 0.22199,4.00459 0.24282,7.72576 0.033,5.89696 -0.0271,6.79071 -0.46831,6.96 -0.98537,0.37812 -9.58531,0.21476 -9.98983,-0.18976 z M 109.25448,196.75989 c -0.33101,-0.99043 -0.1731,-16.67758 0.17142,-17.02872 0.3787,-0.38597 24.28803,-0.25834 25.0203,0.13356 0.55495,0.297 0.5938,0.86028 0.5938,8.60765 0,5.94505 -0.10502,8.35476 -0.3713,8.51933 -0.20422,0.12622 -5.94882,0.29667 -12.76578,0.37877 l -12.39447,0.14929 z m 152.46225,-2.40084 c -0.78209,-0.22692 -0.91672,-1.49065 -0.91672,-8.60481 0,-5.61897 0.0677,-6.51172 0.50617,-6.68 0.27839,-0.10683 3.72296,-0.19423 7.65457,-0.19423 h 7.14841 l 0.15109,0.88 c 0.0831,0.484 0.17494,3.92762 0.20409,7.65251 0.0492,6.29213 0.0119,6.78262 -0.52567,6.91513 -0.7856,0.19363 -13.56558,0.22185 -14.22194,0.0314 z m 147.52002,0 c -0.78211,-0.22692 -0.91674,-1.49065 -0.91674,-8.60481 0,-5.61897 0.0676,-6.51172 0.50618,-6.68 0.2784,-0.10683 3.72294,-0.19423 7.65456,-0.19423 h 7.14842 l 0.1511,0.88 c 0.0831,0.484 0.17491,3.92762 0.20406,7.65251 0.0492,6.29213 0.0118,6.78262 -0.52566,6.91513 -0.7856,0.19363 -13.56557,0.22185 -14.22192,0.0314 z m -93.47674,-15.3916 c -0.66,-0.0694 -1.22574,-0.29739 -1.25719,-0.50676 -0.0315,-0.20938 -0.0675,-5.73743 -0.08,-12.28456 -0.0178,-9.3125 -0.11332,-11.99447 -0.43856,-12.32 -0.22866,-0.22887 -1.28552,-0.48813 -2.34857,-0.57613 l -1.93283,-0.16 -0.11242,-2.88 c -0.0618,-1.584 -0.0304,-3.708 0.0699,-4.72 l 0.18234,-1.84 h 2.04658 c 1.90005,0 2.06884,-0.0585 2.35727,-0.81715 0.17088,-0.44944 0.27531,-2.93344 0.23208,-5.52 -0.0706,-4.22534 -0.0114,-4.83097 0.58336,-5.96471 1.3168,-2.51016 1.55723,-2.57814 9.11814,-2.57814 5.27801,0 6.7272,0.0901 6.85625,0.42618 0.23059,0.60051 0.20455,7.57491 -0.0307,8.18765 -0.15616,0.40698 -0.73622,0.50713 -2.96,0.51107 -1.52115,0.003 -2.98176,0.1414 -3.24576,0.30824 -0.41683,0.26342 -0.49145,2.95434 -0.56697,20.4512 l -0.087,20.14788 -0.87302,0.14546 c -1.04311,0.17379 -5.82342,0.16729 -7.51303,-0.0102 z m -29.64406,-0.41243 c -1.94123,-0.28807 -3.11955,-1.02995 -3.98613,-2.50972 -0.55082,-0.94057 -0.58729,-1.92838 -0.54682,-14.80837 0.0482,-15.35054 0.0455,-15.32901 2.1342,-16.61991 1.03426,-0.63921 1.70391,-0.77115 4.19672,-0.8269 l 2.96609,-0.0663 0.0577,4.69811 c 0.0317,2.58396 0.0795,8.11015 0.10615,12.28043 0.0528,8.26513 0.0965,8.46825 1.85999,8.63918 l 1.01617,0.0985 v 4.64001 4.64 l -3.04,0.0454 c -1.672,0.025 -3.81583,-0.0697 -4.76406,-0.21041 z m 11.02054,-0.98936 c -0.10803,-0.77311 -0.15593,-2.98965 -0.10645,-4.92566 0.20732,-8.11113 -0.0611,-19.05772 -0.47003,-19.16637 -0.22,-0.0585 -0.832,-0.23737 -1.36,-0.39758 l -0.96,-0.2913 -0.0743,-3.19237 c -0.0408,-1.75581 0.006,-3.81824 0.10423,-4.58319 l 0.17847,-1.39081 4.21578,0.1166 c 4.56865,0.12636 5.60373,0.4238 6.71877,1.93069 0.90748,1.2264 1.14424,4.9537 1.15443,18.17433 0.008,10.07208 -0.0434,11.15436 -0.58387,12.34428 -0.79406,1.74835 -2.17318,2.36932 -5.78118,2.60307 l -2.83947,0.18396 z m 30.43686,-24.17899 c -0.30979,-0.30978 -0.25267,-8.8292 0.0625,-9.3262 0.1761,-0.2777 0.79651,-0.38589 1.83507,-0.32 l 1.56906,0.0995 0.18083,4.48 c 0.10493,2.59997 0.0549,4.64786 -0.1192,4.88 -0.31056,0.41407 -3.15065,0.56432 -3.52829,0.18667 z M 175.95948,122.56203 c -2.71893,-0.2108 -3.76468,-0.44195 -5.21735,-1.15325 -2.11583,-1.03603 -3.80903,-2.77439 -4.38904,-4.50613 -0.31712,-0.94685 -0.44825,-8.5132 -0.58129,-33.542648 -0.0945,-17.776 -0.0719,-33.452711 0.0503,-34.837137 0.36857,-4.178067 2.45601,-6.378352 6.76974,-7.135718 1.91107,-0.335527 19.33323,-0.646711 19.43552,-0.347146 0.015,0.044 0.099,4.060877 0.18664,8.926394 l 0.15932,8.846394 -1.1265,0.371776 c -0.69421,0.22911 -1.85319,0.289558 -3.02024,0.15752 -2.0912,-0.236592 -3.01525,0.07471 -3.63697,1.225251 -0.29306,0.542333 -0.37707,7.914484 -0.35148,30.844526 0.0252,22.614378 -0.0601,30.259858 -0.34223,30.644908 -0.48823,0.66645 -3.43641,0.85415 -7.93638,0.50526 z M 233.75044,122.32 c -0.34231,-0.8053 -0.59365,-15.75771 -0.26511,-15.77166 0.15107,-0.006 2.67959,-0.0424 5.61892,-0.08 3.88259,-0.0496 5.45796,-0.18214 5.76,-0.48442 0.28856,-0.28879 0.39568,-1.26779 0.35014,-3.2 -0.0361,-1.53116 0.16225,-4.479786 0.44076,-6.552516 0.41414,-3.082125 0.44067,-4.281017 0.14562,-6.581673 -0.19842,-1.547191 -0.36076,-3.750218 -0.36076,-4.89562 0,-2.525024 -0.63058,-3.300416 -2.96314,-3.643613 -1.20472,-0.177254 -1.55181,-0.366934 -1.66027,-0.907302 -0.38793,-1.932823 -0.50154,-5.586775 -0.30495,-9.808487 l 0.2193,-4.709363 3.71453,-0.207306 c 3.79388,-0.211737 9.51411,0.16184 11.59217,0.757066 1.84904,0.529626 3.224,1.647485 4.08548,3.321552 0.72869,1.416029 0.83596,2.158797 1.1874,8.222019 0.4505,7.772321 0.32887,35.091263 -0.16765,37.655773 -0.61444,3.17351 -2.25917,5.37801 -4.57474,6.13172 -2.53508,0.82515 -8.2295,1.31383 -15.3096,1.31383 -6.61985,0 -7.29135,-0.0501 -7.5081,-0.56 z m 82.49487,0.33329 c -2.93739,-0.10365 -3.31181,-0.1849 -3.63497,-0.78873 -0.49656,-0.92782 -0.44155,-80.17678 0.0561,-80.776364 0.50907,-0.613392 14.71338,-0.317942 15.18269,0.315799 0.21808,0.29447 0.37961,11.494099 0.47888,33.20019 0.21366,46.721805 0.21085,47.224855 -0.26938,47.706135 -0.42931,0.43029 -5.31712,0.5722 -11.81329,0.34297 z m -96.02563,-0.48161 c -0.30226,-0.30227 -0.3474,-9.22039 -0.20367,-40.240004 0.10157,-21.91842 0.25025,-40.175675 0.33043,-40.571675 l 0.14576,-0.72 h 7.31967 c 6.66279,0 7.34204,0.05026 7.569,0.56 0.29855,0.670525 0.5838,57.245893 0.29849,59.199999 l -0.19857,1.36 h -2.79923 c -1.73593,0 -3.00725,0.15211 -3.34686,0.40044 -0.4881,0.35691 -0.56986,1.46742 -0.75216,10.21602 -0.23771,11.40734 0.33967,10.17225 -4.75853,10.17918 -2.09995,0.003 -3.35076,-0.1304 -3.60433,-0.38396 z m 61.86033,0.0946 c -6.45426,-0.13395 -10.2216,-0.3372 -10.78327,-0.58179 -1.17286,-0.51073 -3.39528,-2.55743 -3.95745,-3.64454 -0.26853,-0.51928 -0.45928,-1.80291 -0.45928,-3.09068 0,-1.21138 -0.15466,-2.98253 -0.34368,-3.93589 -0.24117,-1.21635 -0.25557,-6.25999 -0.0483,-16.90955 0.19708,-10.125043 0.18792,-15.599591 -0.0275,-16.44832 -0.34781,-1.370288 0.0887,-5.711975 0.80614,-8.017447 0.45876,-1.474265 1.74867,-2.843654 3.57032,-3.790304 1.213,-0.630358 1.89151,-0.695174 8.15937,-0.779443 4.17364,-0.05611 7.07147,0.03392 7.44,0.231152 0.56456,0.302141 0.60365,0.797712 0.60365,7.652919 0,5.437817 -0.10116,7.392374 -0.39189,7.572057 -0.21554,0.13321 -1.16494,0.347108 -2.10977,0.475322 -0.94484,0.128218 -1.81249,0.327603 -1.92811,0.443075 -0.11563,0.115475 -0.31606,4.84208 -0.44542,10.503562 -0.2357,10.316407 -0.0627,13.332847 0.81498,14.210537 0.31621,0.31622 3.19864,0.47116 12.07777,0.64921 l 11.66245,0.23386 -10e-4,4.32 c -10e-4,4.94787 -0.44606,6.61345 -2.31967,8.68733 -2.13845,2.36699 -4.39144,2.59098 -22.31919,2.21894 z M 333.85889,122.16 c -0.28778,-0.44464 -0.54381,-55.018254 -0.26346,-56.159998 l 0.17677,-0.72 h 7.47968 c 6.63085,0 7.50247,0.05943 7.68061,0.523712 0.11056,0.288042 0.19648,13.060448 0.19098,28.38313 -0.008,21.807716 -0.0962,27.914156 -0.40672,28.111386 -0.21821,0.13859 -3.59223,0.25418 -7.49786,0.25687 -5.33395,0.004 -7.16554,-0.0946 -7.36,-0.3951 z m 27.05584,0.0903 c -4.87273,-0.87704 -6.72579,-3.88886 -6.79881,-11.05033 -0.0198,-1.936 0.0676,-3.772 0.19404,-4.08 0.2096,-0.51043 0.88132,-0.56 7.58874,-0.56 6.9479,0 7.37728,0.0346 7.69005,0.61897 0.41849,0.78193 0.43789,14.07693 0.0214,14.73543 -0.35242,0.55732 -6.20855,0.78355 -8.69552,0.33593 z m 45.44132,0.0851 -6.28394,-0.10873 -0.21802,-1.74494 c -0.11993,-0.95972 -0.18825,-8.84073 -0.15187,-17.51335 0.0364,-8.672632 -0.0328,-16.130353 -0.15373,-16.572722 -0.12092,-0.442368 -0.0455,-3.106368 0.16762,-5.92 0.45088,-5.953257 0.43446,-4.465472 0.26016,-23.56888 -0.0749,-8.213252 -0.016,-15.053252 0.13107,-15.200001 0.41079,-0.410035 15.21821,-0.337955 15.37667,0.07485 0.0721,0.187916 0.1522,7.557085 0.17792,16.375926 0.0513,17.586622 0.12663,16.814014 -1.93043,19.803847 -0.56326,0.818685 -1.85523,3.160279 -2.87101,5.20354 -1.0158,2.043257 -2.21545,4.20625 -2.66592,4.806643 -1.80067,2.400042 -1.72691,3.73225 0.37783,6.824839 0.51037,0.749945 1.58435,2.7572 2.38662,4.460563 0.80224,1.703365 1.88496,3.719365 2.40602,4.479995 1.59696,2.3312 2.22931,3.85614 2.47014,5.95691 0.25866,2.25594 -0.0986,11.61672 -0.46598,12.2112 -0.31091,0.50309 -1.50663,0.56017 -9.01315,0.4303 z m 24.14083,-0.0119 c -1.61322,-0.0921 -2.01936,-0.22725 -2.17725,-0.72474 -0.10675,-0.33637 -1.21968,-2.3097 -2.47315,-4.38517 -1.25344,-2.07548 -3.45981,-6.22168 -4.90298,-9.21378 -1.4432,-2.9921 -3.48573,-6.8081 -4.53891,-8.479999 -2.064,-3.276464 -3.86707,-6.684752 -4.25904,-8.050701 -0.18214,-0.634819 -0.0631,-1.122359 0.46899,-1.92 0.39223,-0.588016 0.95107,-1.67568 1.24189,-2.417034 0.29078,-0.741354 1.66122,-3.261354 3.04534,-5.6 4.49504,-7.594851 6.03808,-10.295408 7.09204,-12.412087 1.88521,-3.786118 1.07008,-3.52 10.78198,-3.52 6.94208,0 8.42422,0.07756 8.42422,0.440819 0,0.242448 -0.20364,0.609821 -0.45254,0.816384 -0.24886,0.20656 -0.8376,1.340192 -1.30826,2.519181 -0.47065,1.178989 -1.33084,2.935616 -1.91152,3.903616 -0.58067,0.968 -2.0951,3.704 -3.36537,6.08 -1.27031,2.376001 -3.16615,5.715377 -4.21299,7.420833 -2.9545,4.813366 -2.91626,5.31023 0.87081,11.312227 1.32807,2.104821 2.89696,4.834941 3.4864,6.066941 0.58944,1.232 1.72368,3.608 2.52051,5.28 0.79687,1.672 2.27309,4.33137 3.28052,5.90972 2.18163,3.41797 3.45881,6.09939 3.2118,6.74309 -0.14995,0.39075 -1.215,0.4571 -6.50931,0.40553 -3.48153,-0.0339 -7.22246,-0.11258 -8.31318,-0.17483 z m -241.86051,-6.63724 c -0.12871,-3.60456 -0.10856,-7.67256 0.0448,-9.04 l 0.27884,-2.48626 2.56,-0.0834 c 4.70776,-0.15348 5.09976,-0.75586 5.15167,-7.916547 0.0204,-2.816 0.0244,-11.744001 0.009,-19.840001 -0.0419,-21.83249 0.11635,-34.844871 0.42762,-35.156142 0.15201,-0.152006 2.84486,-0.217427 5.98412,-0.145379 5.06762,0.116307 5.88673,0.211847 7.30375,0.851891 3.06583,1.384781 4.14035,3.052116 4.59459,7.129453 0.16423,1.474096 0.24034,4.264177 0.16914,6.200177 -0.0712,1.936 -0.0913,4.024 -0.0446,4.64 0.0467,0.616 0.0813,12.496 0.077,26.4 -0.007,23.100938 -0.0566,25.473078 -0.57358,27.519998 -1.20791,4.78221 -2.56562,6.5726 -5.96315,7.86356 -1.46327,0.556 -2.51282,0.61644 -10.70371,0.61644 h -9.08137 z m 185.97158,5.85761 c -0.25581,-0.95529 -0.26122,-13.31243 -0.006,-14.26387 0.14541,-0.54257 0.42809,-0.72 1.14723,-0.72 1.33974,0 2.92886,-1.70743 2.65808,-2.85594 -0.10688,-0.45323 -0.48979,-1.07418 -0.85094,-1.37988 -1.36224,-1.15306 -3.05632,-1.36719 -10.16372,-1.28467 -4.00908,0.0465 -7.36022,-0.0585 -8.08419,-0.25347 -1.62829,-0.43845 -3.32547,-1.965724 -4.28198,-3.853314 -1.01347,-2.000016 -1.58003,-7.694055 -1.25495,-12.612724 0.12797,-1.936 0.26205,-5.608 0.29796,-8.16 0.0893,-6.344643 0.6831,-8.118928 3.46704,-10.359398 0.9999,-0.804701 1.62604,-1.019917 3.52,-1.209921 3.88899,-0.390144 12.63475,-0.321225 12.89609,0.101623 0.38477,0.622547 0.54327,6.34527 0.29498,10.650042 -0.19421,3.366835 -0.32464,4.089667 -0.76083,4.216214 -0.28957,0.084 -1.03047,0.39769 -1.64647,0.697085 -1.47104,0.714967 -1.97641,2.392384 -1.11632,3.705075 1.05203,1.605578 2.11754,1.79928 9.89731,1.79928 7.9482,0 9.62736,0.28449 11.52775,1.953041 0.65456,0.574707 1.38339,1.702582 1.80048,2.786265 0.82118,2.133683 0.87549,3.875812 0.54201,17.391652 -0.24028,9.73893 -0.35715,10.37068 -2.20771,11.9346 -2.32899,1.96822 -3.32371,2.18438 -10.71997,2.32956 l -6.75641,0.13262 -0.1992,-0.74387 z m -83.88794,-21.04694 -3.52,-0.17693 -0.24479,-3.839997 c -0.13464,-2.112 -0.20664,-5.495812 -0.16,-7.519581 l 0.0848,-3.679581 2.05679,-0.320419 c 2.92081,-0.455021 2.93194,-0.493415 2.69008,-9.28042 -0.13841,-5.028563 -0.081,-7.577587 0.20099,-8.921552 l 0.39477,-1.881552 4.04868,0.216934 c 2.22678,0.119315 4.80709,0.430733 5.73402,0.692039 2.08021,0.586429 4.30658,2.61047 4.89937,4.454131 0.55749,1.733878 0.79709,20.106068 0.30367,23.286167 -0.19449,1.253527 -0.65367,2.76464 -1.02041,3.358029 -1.84425,2.984074 -6.47191,4.064922 -15.46796,3.612732 z M 380.9194,79.765452 c -1.61584,-0.11441 -1.64358,-0.134064 -1.83648,-1.300807 -0.25872,-1.564819 -0.25292,-8.926793 0.009,-11.702829 l 0.20756,-2.198182 4.67014,0.158262 c 6.40515,0.217059 8.2239,0.987204 9.83376,4.164093 0.80352,1.585661 0.82912,1.806423 0.69549,5.993348 -0.0763,2.390876 -0.24631,4.52111 -0.37779,4.733856 -0.22973,0.371705 -8.71965,0.469619 -13.20189,0.152259 z M 334.35675,56.119048 c -0.78212,-0.226925 -0.91674,-1.49065 -0.91674,-8.60481 0,-5.618973 0.0677,-6.511722 0.50618,-6.68 0.2784,-0.106832 3.72294,-0.194237 7.65456,-0.194237 h 7.14841 l 0.15111,0.88 c 0.0831,0.484 0.17491,3.927629 0.20406,7.652512 0.0492,6.292135 0.0118,6.782628 -0.52566,6.915137 -0.7856,0.193628 -13.56557,0.221846 -14.22192,0.03139 z"
     id="path113"
     inkscape:connector-curvature="0" />
</svg>
